<?xml version="1.0" encoding="UTF-8"?><svg id="Layer_2" xmlns="http://www.w3.org/2000/svg" xmlns:xlink="http://www.w3.org/1999/xlink" viewBox="0 0 350.63 318.26"><defs><clipPath id="clippath"><path class="cls-1" d="M275.22,195.7l-7.71,36.11c-31.78,1.88-61.87,2.44-92.53,2.44-32.54,0-65.82-.56-97.42-2.44l24.07-113.21-22.94-17.49.75-3.95c36.48-1.5,92.34-2.45,131.46-2.45h.75c28.21,0,55.29.56,83.69,2.45l-7.71,36.11c-23.32-2.07-52.85-2.26-76.35-2.26h-59.62l-4.33,20.31h91.78l-5.45,26.89h-91.96l-4.14,19.37c21.25.19,44.76.38,66.2.38s48.52-.19,71.46-2.26Z"></path></clipPath></defs><g id="Layer_1-2"><path class="cls-2" d="M282.15,241.4c1.51-3.87,2.52-7.4,3.53-11.27h53.67c-3.2,13.97-7.4,26.92-12.45,40.89-31.13,5.38-61.25,7.4-91.03,7.4s-59.06-2.02-87.83-7.4c1.18-18.68,3.53-36.34,7.57-55.02,4.04-18.68,9.09-36.34,15.82-55.02,30.96-5.38,61.25-7.4,91.03-7.4s59.06,1.51,88.17,5.55c-1.01,14.97-2.36,28.77-5.22,43.07h-53.84c.67-3.7,1.01-7.4,1.35-11.61-12.28-1.85-25.41-2.02-37.86-2.02s-26.25.17-39.2,2.02c-2.69,8.75-4.88,16.66-6.73,25.41-1.85,8.75-3.03,16.66-4.04,25.41,12.28,1.85,25.57,2.02,38.19,2.02s25.91-.17,38.87-2.02Z"></path><path class="cls-2" d="M148.17,318.26c-50.53-4.77-96.06-30.46-118.67-77.24-9.86-19.84-15.06-41.46-17.38-63.31-3.46-28.89,1.47-58.96,14.93-84.92C53.88,40.05,111.35,8.31,170.01,10.05c18.79.52,37.78,3.76,55.12,11.23,22.54,9.53,41.59,25.96,57.43,44.16-19.93-11.99-39.95-23.57-62.56-28.91-14.81-3.54-30.1-4.34-45.26-3.38-72.82,3.94-137.13,58.54-136.13,134.23.87,78.51,35.97,124.89,109.56,150.89h0Z"></path><path class="cls-1" d="M148.17,318.26c-1.62-.04-5.46-.24-7.02-.3-1.37-.13-5.56-.55-7.02-.7-1.62-.25-5.44-.83-7-1.08-1.39-.27-5.47-1.15-6.96-1.46-1.6-.43-5.37-1.38-6.91-1.8-1.33-.37-5.41-1.75-6.82-2.16-1.56-.6-5.24-1.9-6.74-2.49-1.29-.52-5.25-2.27-6.62-2.84C38.44,280.63,1.16,224.33.04,164.22-2.02,67.78,81.73-11.04,178.22,1.27c22.76,2.97,44.79,11.56,63.89,24.22,15.82,10.58,30.06,24.19,40.44,39.95-27.94-22.85-61.6-38.42-97.56-41.3-33.8-2.74-68.43,6.9-96.13,26.32-107.94,78.52-65.09,235.4,59.31,267.8h0Z"></path><path class="cls-1" d="M275.22,195.7l-7.71,36.11c-31.78,1.88-61.87,2.44-92.53,2.44-32.54,0-65.82-.56-97.42-2.44l24.07-113.21-22.94-17.49.75-3.95c36.48-1.5,92.34-2.45,131.46-2.45h.75c28.21,0,55.29.56,83.69,2.45l-7.71,36.11c-23.32-2.07-52.85-2.26-76.35-2.26h-59.62l-4.33,20.31h91.78l-5.45,26.89h-91.96l-4.14,19.37c21.25.19,44.76.38,66.2.38s48.52-.19,71.46-2.26Z"></path><g class="cls-3"><polygon class="cls-1" points="77.57 95.79 80.05 94.7 118.38 94.7 179.19 234.25 77.57 234.25 77.57 95.79"></polygon><polygon class="cls-1" points="118.75 94.7 179.56 234.25 179.19 234.25 118.38 94.7 118.75 94.7"></polygon><polygon class="cls-1" points="119.12 94.7 179.93 234.25 179.56 234.25 118.75 94.7 119.12 94.7"></polygon><polygon class="cls-1" points="119.49 94.7 180.3 234.25 179.93 234.25 119.12 94.7 119.49 94.7"></polygon><polygon class="cls-1" points="119.86 94.7 180.66 234.25 180.3 234.25 119.49 94.7 119.86 94.7"></polygon><polygon class="cls-1" points="120.22 94.7 181.03 234.25 180.66 234.25 119.86 94.7 120.22 94.7"></polygon><polygon class="cls-1" points="120.59 94.7 181.4 234.25 181.03 234.25 120.22 94.7 120.59 94.7"></polygon><polygon class="cls-1" points="120.96 94.7 181.77 234.25 181.4 234.25 120.59 94.7 120.96 94.7"></polygon><polygon class="cls-1" points="121.33 94.7 182.13 234.25 181.77 234.25 120.96 94.7 121.33 94.7"></polygon><polygon class="cls-1" points="121.7 94.7 182.5 234.25 182.13 234.25 121.33 94.7 121.7 94.7"></polygon><polygon class="cls-1" points="122.06 94.7 182.87 234.25 182.5 234.25 121.7 94.7 122.06 94.7"></polygon><polygon class="cls-1" points="122.43 94.7 183.24 234.25 182.87 234.25 122.06 94.7 122.43 94.7"></polygon><polygon class="cls-1" points="122.8 94.7 183.61 234.25 183.24 234.25 122.43 94.7 122.8 94.7"></polygon><polygon class="cls-1" points="123.17 94.7 183.97 234.25 183.61 234.25 122.8 94.7 123.17 94.7"></polygon><polygon class="cls-1" points="123.53 94.7 184.34 234.25 183.97 234.25 123.17 94.7 123.53 94.7"></polygon><polygon class="cls-1" points="123.9 94.7 184.71 234.25 184.34 234.25 123.53 94.7 123.9 94.7"></polygon><polygon class="cls-1" points="124.27 94.7 185.08 234.25 184.71 234.25 123.9 94.7 124.27 94.7"></polygon><polygon class="cls-1" points="124.64 94.7 185.44 234.25 185.08 234.25 124.27 94.7 124.64 94.7"></polygon><polygon class="cls-1" points="125.01 94.7 185.81 234.25 185.44 234.25 124.64 94.7 125.01 94.7"></polygon><polygon class="cls-1" points="125.37 94.7 186.18 234.25 185.81 234.25 125.01 94.7 125.37 94.7"></polygon><polygon class="cls-1" points="125.74 94.7 186.55 234.25 186.18 234.25 125.37 94.7 125.74 94.7"></polygon><polygon class="cls-1" points="126.11 94.7 186.92 234.25 186.55 234.25 125.74 94.7 126.11 94.7"></polygon><polygon class="cls-1" points="126.48 94.7 187.28 234.25 186.92 234.25 126.11 94.7 126.48 94.7"></polygon><polygon class="cls-1" points="126.84 94.7 187.65 234.25 187.28 234.25 126.48 94.7 126.84 94.7"></polygon><polygon class="cls-1" points="127.21 94.7 188.02 234.25 187.65 234.25 126.84 94.7 127.21 94.7"></polygon><polygon class="cls-1" points="127.58 94.7 188.39 234.25 188.02 234.25 127.21 94.7 127.58 94.7"></polygon><polygon class="cls-1" points="127.95 94.7 188.75 234.25 188.39 234.25 127.58 94.7 127.95 94.7"></polygon><polygon class="cls-1" points="128.32 94.7 189.12 234.25 188.75 234.25 127.95 94.7 128.32 94.7"></polygon><polygon class="cls-1" points="128.68 94.7 189.49 234.25 189.12 234.25 128.32 94.7 128.68 94.7"></polygon><polygon class="cls-1" points="129.05 94.7 189.86 234.25 189.49 234.25 128.68 94.7 129.05 94.7"></polygon><polygon class="cls-1" points="129.42 94.7 190.23 234.25 189.86 234.25 129.05 94.7 129.42 94.7"></polygon><polygon class="cls-1" points="129.79 94.7 190.59 234.25 190.23 234.25 129.42 94.7 129.79 94.7"></polygon><polygon class="cls-1" points="130.15 94.7 190.96 234.25 190.59 234.25 129.79 94.7 130.15 94.7"></polygon><polygon class="cls-1" points="130.52 94.7 191.33 234.25 190.96 234.25 130.15 94.7 130.52 94.7"></polygon><polygon class="cls-1" points="130.89 94.7 191.7 234.25 191.33 234.25 130.52 94.7 130.89 94.7"></polygon><polygon class="cls-1" points="131.26 94.7 192.07 234.25 191.7 234.25 130.89 94.7 131.26 94.7"></polygon><polygon class="cls-1" points="131.63 94.7 192.43 234.25 192.07 234.25 131.26 94.7 131.63 94.7"></polygon><polygon class="cls-1" points="131.99 94.7 192.8 234.25 192.43 234.25 131.63 94.7 131.99 94.7"></polygon><polygon class="cls-1" points="132.36 94.7 193.17 234.25 192.8 234.25 131.99 94.7 132.36 94.7"></polygon><polygon class="cls-1" points="132.73 94.7 193.54 234.25 193.17 234.25 132.36 94.7 132.73 94.7"></polygon><polygon class="cls-1" points="133.1 94.7 193.9 234.25 193.54 234.25 132.73 94.7 133.1 94.7"></polygon><polygon class="cls-1" points="133.47 94.7 194.27 234.25 193.9 234.25 133.1 94.7 133.47 94.7"></polygon><polygon class="cls-1" points="133.83 94.7 194.64 234.25 194.27 234.25 133.47 94.7 133.83 94.7"></polygon><polygon class="cls-1" points="134.2 94.7 195.01 234.25 194.64 234.25 133.83 94.7 134.2 94.7"></polygon><polygon class="cls-1" points="134.57 94.7 195.38 234.25 195.01 234.25 134.2 94.7 134.57 94.7"></polygon><polygon class="cls-1" points="134.94 94.7 195.74 234.25 195.38 234.25 134.57 94.7 134.94 94.7"></polygon><polygon class="cls-1" points="135.3 94.7 196.11 234.25 195.74 234.25 134.94 94.7 135.3 94.7"></polygon><polygon class="cls-1" points="135.67 94.7 196.48 234.25 196.11 234.25 135.3 94.7 135.67 94.7"></polygon><polygon class="cls-1" points="136.04 94.7 196.85 234.25 196.48 234.25 135.67 94.7 136.04 94.7"></polygon><polygon class="cls-1" points="136.41 94.7 197.21 234.25 196.85 234.25 136.04 94.7 136.41 94.7"></polygon><polygon class="cls-1" points="136.78 94.7 197.58 234.25 197.21 234.25 136.41 94.7 136.78 94.7"></polygon><polygon class="cls-1" points="137.14 94.7 197.95 234.25 197.58 234.25 136.78 94.7 137.14 94.7"></polygon><polygon class="cls-1" points="137.51 94.7 198.32 234.25 197.95 234.25 137.14 94.7 137.51 94.7"></polygon><polygon class="cls-1" points="137.88 94.7 198.69 234.25 198.32 234.25 137.51 94.7 137.88 94.7"></polygon><polygon class="cls-1" points="138.25 94.7 199.05 234.25 198.69 234.25 137.88 94.7 138.25 94.7"></polygon><polygon class="cls-1" points="138.61 94.7 199.42 234.25 199.05 234.25 138.25 94.7 138.61 94.7"></polygon><polygon class="cls-1" points="138.98 94.7 199.79 234.25 199.42 234.25 138.61 94.7 138.98 94.7"></polygon><polygon class="cls-1" points="139.35 94.7 200.16 234.25 199.79 234.25 138.98 94.7 139.35 94.7"></polygon><polygon class="cls-1" points="139.72 94.7 200.52 234.25 200.16 234.25 139.35 94.7 139.72 94.7"></polygon><polygon class="cls-1" points="140.09 94.7 200.89 234.25 200.52 234.25 139.72 94.7 140.09 94.7"></polygon><polygon class="cls-1" points="140.45 94.7 201.26 234.25 200.89 234.25 140.09 94.7 140.45 94.7"></polygon><polygon class="cls-1" points="140.82 94.7 201.63 234.25 201.26 234.25 140.45 94.7 140.82 94.7"></polygon><polygon class="cls-1" points="141.19 94.7 202 234.25 201.63 234.25 140.82 94.7 141.19 94.7"></polygon><polygon class="cls-1" points="141.56 94.7 202.36 234.25 202 234.25 141.19 94.7 141.56 94.7"></polygon><polygon class="cls-1" points="141.93 94.7 202.73 234.25 202.36 234.25 141.56 94.7 141.93 94.7"></polygon><polygon class="cls-1" points="142.29 94.7 203.1 234.25 202.73 234.25 141.93 94.7 142.29 94.7"></polygon><polygon class="cls-1" points="142.66 94.7 203.47 234.25 203.1 234.25 142.29 94.7 142.66 94.7"></polygon><polygon class="cls-1" points="143.03 94.7 203.84 234.25 203.47 234.25 142.66 94.7 143.03 94.7"></polygon><polygon class="cls-1" points="143.4 94.7 204.2 234.25 203.84 234.25 143.03 94.7 143.4 94.7"></polygon><polygon class="cls-1" points="143.76 94.7 204.57 234.25 204.2 234.25 143.4 94.7 143.76 94.7"></polygon><polygon class="cls-1" points="144.13 94.7 204.94 234.25 204.57 234.25 143.76 94.7 144.13 94.7"></polygon><polygon class="cls-1" points="144.5 94.7 205.31 234.25 204.94 234.25 144.13 94.7 144.5 94.7"></polygon><polygon class="cls-1" points="144.87 94.7 205.67 234.25 205.31 234.25 144.5 94.7 144.87 94.7"></polygon><polygon class="cls-1" points="145.24 94.7 206.04 234.25 205.67 234.25 144.87 94.7 145.24 94.7"></polygon><polygon class="cls-1" points="145.6 94.7 206.41 234.25 206.04 234.25 145.24 94.7 145.6 94.7"></polygon><polygon class="cls-1" points="145.97 94.7 206.78 234.25 206.41 234.25 145.6 94.7 145.97 94.7"></polygon><polygon class="cls-1" points="146.34 94.7 207.15 234.25 206.78 234.25 145.97 94.7 146.34 94.7"></polygon><polygon class="cls-1" points="146.71 94.7 207.51 234.25 207.15 234.25 146.34 94.7 146.71 94.7"></polygon><polygon class="cls-1" points="147.07 94.7 207.88 234.25 207.51 234.25 146.71 94.7 147.07 94.7"></polygon><polygon class="cls-1" points="147.44 94.7 208.25 234.25 207.88 234.25 147.07 94.7 147.44 94.7"></polygon><polygon class="cls-1" points="147.81 94.7 208.62 234.25 208.25 234.25 147.44 94.7 147.81 94.7"></polygon><polygon class="cls-1" points="148.18 94.7 208.98 234.25 208.62 234.25 147.81 94.7 148.18 94.7"></polygon><polygon class="cls-1" points="148.55 94.7 209.35 234.25 208.98 234.25 148.18 94.7 148.55 94.7"></polygon><polygon class="cls-1" points="148.91 94.7 209.72 234.25 209.35 234.25 148.55 94.7 148.91 94.7"></polygon><polygon class="cls-1" points="149.28 94.7 210.09 234.25 209.72 234.25 148.91 94.7 149.28 94.7"></polygon><polygon class="cls-1" points="149.65 94.7 210.46 234.25 210.09 234.25 149.28 94.7 149.65 94.7"></polygon><polygon class="cls-1" points="150.02 94.7 210.82 234.25 210.46 234.25 149.65 94.7 150.02 94.7"></polygon><polygon class="cls-1" points="150.38 94.7 211.19 234.25 210.82 234.25 150.02 94.7 150.38 94.7"></polygon><polygon class="cls-1" points="150.75 94.7 211.56 234.25 211.19 234.25 150.38 94.7 150.75 94.7"></polygon><polygon class="cls-1" points="151.12 94.7 211.93 234.25 211.56 234.25 150.75 94.7 151.12 94.7"></polygon><polygon class="cls-1" points="151.49 94.7 212.3 234.25 211.93 234.25 151.12 94.7 151.49 94.7"></polygon><polygon class="cls-1" points="151.86 94.7 212.66 234.25 212.3 234.25 151.49 94.7 151.86 94.7"></polygon><polygon class="cls-1" points="152.22 94.7 213.03 234.25 212.66 234.25 151.86 94.7 152.22 94.7"></polygon><polygon class="cls-1" points="152.59 94.7 213.4 234.25 213.03 234.25 152.22 94.7 152.59 94.7"></polygon><polygon class="cls-1" points="152.96 94.7 213.77 234.25 213.4 234.25 152.59 94.7 152.96 94.7"></polygon><polygon class="cls-1" points="153.33 94.7 214.13 234.25 213.77 234.25 152.96 94.7 153.33 94.7"></polygon><polygon class="cls-1" points="153.7 94.7 214.5 234.25 214.13 234.25 153.33 94.7 153.7 94.7"></polygon><polygon class="cls-1" points="154.06 94.7 214.87 234.25 214.5 234.25 153.7 94.7 154.06 94.7"></polygon><polygon class="cls-1" points="154.43 94.7 215.24 234.25 214.87 234.25 154.06 94.7 154.43 94.7"></polygon><polygon class="cls-1" points="154.8 94.7 215.61 234.25 215.24 234.25 154.43 94.7 154.8 94.7"></polygon><polygon class="cls-1" points="155.17 94.7 215.97 234.25 215.61 234.25 154.8 94.7 155.17 94.7"></polygon><polygon class="cls-1" points="155.53 94.7 216.34 234.25 215.97 234.25 155.17 94.7 155.53 94.7"></polygon><polygon class="cls-1" points="155.9 94.7 216.71 234.25 216.34 234.25 155.53 94.7 155.9 94.7"></polygon><polygon class="cls-1" points="156.27 94.7 217.08 234.25 216.71 234.25 155.9 94.7 156.27 94.7"></polygon><polygon class="cls-1" points="156.64 94.7 217.44 234.25 217.08 234.25 156.27 94.7 156.64 94.7"></polygon><polygon class="cls-1" points="157.01 94.7 217.81 234.25 217.44 234.25 156.64 94.7 157.01 94.7"></polygon><polygon class="cls-1" points="157.37 94.7 218.18 234.25 217.81 234.25 157.01 94.7 157.37 94.7"></polygon><polygon class="cls-1" points="157.74 94.7 218.55 234.25 218.18 234.25 157.37 94.7 157.74 94.7"></polygon><polygon class="cls-1" points="158.11 94.7 218.92 234.25 218.55 234.25 157.74 94.7 158.11 94.7"></polygon><polygon class="cls-1" points="158.48 94.7 219.28 234.25 218.92 234.25 158.11 94.7 158.48 94.7"></polygon><polygon class="cls-1" points="158.84 94.7 219.65 234.25 219.28 234.25 158.48 94.7 158.84 94.7"></polygon><polygon class="cls-1" points="159.21 94.7 220.02 234.25 219.65 234.25 158.84 94.7 159.21 94.7"></polygon><polygon class="cls-1" points="159.58 94.7 220.39 234.25 220.02 234.25 159.21 94.7 159.58 94.7"></polygon><polygon class="cls-1" points="159.95 94.7 220.75 234.25 220.39 234.25 159.58 94.7 159.95 94.7"></polygon><polygon class="cls-1" points="160.32 94.7 221.12 234.25 220.75 234.25 159.95 94.7 160.32 94.7"></polygon><polygon class="cls-1" points="160.68 94.7 221.49 234.25 221.12 234.25 160.32 94.7 160.68 94.7"></polygon><polygon class="cls-1" points="161.05 94.7 221.86 234.25 221.49 234.25 160.68 94.7 161.05 94.7"></polygon><polygon class="cls-1" points="161.42 94.7 222.23 234.25 221.86 234.25 161.05 94.7 161.42 94.7"></polygon><polygon class="cls-1" points="161.79 94.7 222.59 234.25 222.23 234.25 161.42 94.7 161.79 94.7"></polygon><polygon class="cls-1" points="162.15 94.7 222.96 234.25 222.59 234.25 161.79 94.7 162.15 94.7"></polygon><polygon class="cls-1" points="162.52 94.7 223.33 234.25 222.96 234.25 162.15 94.7 162.52 94.7"></polygon><polygon class="cls-1" points="162.89 94.7 223.7 234.25 223.33 234.25 162.52 94.7 162.89 94.7"></polygon><polygon class="cls-1" points="163.26 94.7 224.07 234.25 223.7 234.25 162.89 94.7 163.26 94.7"></polygon><polygon class="cls-1" points="163.63 94.7 224.43 234.25 224.07 234.25 163.26 94.7 163.63 94.7"></polygon><polygon class="cls-1" points="163.99 94.7 224.8 234.25 224.43 234.25 163.63 94.7 163.99 94.7"></polygon><polygon class="cls-1" points="164.36 94.7 225.17 234.25 224.8 234.25 163.99 94.7 164.36 94.7"></polygon><polygon class="cls-1" points="164.73 94.7 225.54 234.25 225.17 234.25 164.36 94.7 164.73 94.7"></polygon><polygon class="cls-1" points="165.1 94.7 225.9 234.25 225.54 234.25 164.73 94.7 165.1 94.7"></polygon><polygon class="cls-1" points="165.47 94.7 226.27 234.25 225.9 234.25 165.1 94.7 165.47 94.7"></polygon><polygon class="cls-1" points="165.83 94.7 226.64 234.25 226.27 234.25 165.47 94.7 165.83 94.7"></polygon><polygon class="cls-1" points="166.2 94.7 227.01 234.25 226.64 234.25 165.83 94.7 166.2 94.7"></polygon><polygon class="cls-1" points="166.57 94.7 227.38 234.25 227.01 234.25 166.2 94.7 166.57 94.7"></polygon><polygon class="cls-1" points="166.94 94.7 227.74 234.25 227.38 234.25 166.57 94.7 166.94 94.7"></polygon><polygon class="cls-1" points="167.3 94.7 228.11 234.25 227.74 234.25 166.94 94.7 167.3 94.7"></polygon><polygon class="cls-1" points="167.67 94.7 228.48 234.25 228.11 234.25 167.3 94.7 167.67 94.7"></polygon><polygon class="cls-1" points="168.04 94.7 228.85 234.25 228.48 234.25 167.67 94.7 168.04 94.7"></polygon><polygon class="cls-1" points="168.41 94.7 229.21 234.25 228.85 234.25 168.04 94.7 168.41 94.7"></polygon><polygon class="cls-1" points="168.78 94.7 229.58 234.25 229.21 234.25 168.41 94.7 168.78 94.7"></polygon><polygon class="cls-1" points="169.14 94.7 229.95 234.25 229.58 234.25 168.78 94.7 169.14 94.7"></polygon><polygon class="cls-1" points="169.51 94.7 230.32 234.25 229.95 234.25 169.14 94.7 169.51 94.7"></polygon><polygon class="cls-1" points="169.88 94.7 230.69 234.25 230.32 234.25 169.51 94.7 169.88 94.7"></polygon><polygon class="cls-1" points="170.25 94.7 231.05 234.25 230.69 234.25 169.88 94.7 170.25 94.7"></polygon><polygon class="cls-1" points="170.61 94.7 231.42 234.25 231.05 234.25 170.25 94.7 170.61 94.7"></polygon><polygon class="cls-1" points="170.98 94.7 231.79 234.25 231.42 234.25 170.61 94.7 170.98 94.7"></polygon><polygon class="cls-1" points="171.35 94.7 232.16 234.25 231.79 234.25 170.98 94.7 171.35 94.7"></polygon><polygon class="cls-1" points="171.72 94.7 232.53 234.25 232.16 234.25 171.35 94.7 171.72 94.7"></polygon><polygon class="cls-1" points="172.09 94.7 232.89 234.25 232.53 234.25 171.72 94.7 172.09 94.7"></polygon><polygon class="cls-1" points="172.45 94.7 233.26 234.25 232.89 234.25 172.09 94.7 172.45 94.7"></polygon><polygon class="cls-1" points="172.82 94.7 233.63 234.25 233.26 234.25 172.45 94.7 172.82 94.7"></polygon><polygon class="cls-1" points="173.19 94.7 234 234.25 233.63 234.25 172.82 94.7 173.19 94.7"></polygon><polygon class="cls-1" points="173.56 94.7 234.36 234.25 234 234.25 173.19 94.7 173.56 94.7"></polygon><polygon class="cls-1" points="173.93 94.7 234.73 234.25 234.36 234.25 173.56 94.7 173.93 94.7"></polygon><polygon class="cls-1" points="174.29 94.7 235.1 234.25 234.73 234.25 173.93 94.7 174.29 94.7"></polygon><polygon class="cls-1" points="174.66 94.7 235.47 234.25 235.1 234.25 174.29 94.7 174.66 94.7"></polygon><polygon class="cls-1" points="175.03 94.7 235.84 234.25 235.47 234.25 174.66 94.7 175.03 94.7"></polygon><polygon class="cls-1" points="175.4 94.7 236.2 234.25 235.84 234.25 175.03 94.7 175.4 94.7"></polygon><polygon class="cls-1" points="175.76 94.7 236.57 234.25 236.2 234.25 175.4 94.7 175.76 94.7"></polygon><polygon class="cls-1" points="176.13 94.7 236.94 234.25 236.57 234.25 175.76 94.7 176.13 94.7"></polygon><polygon class="cls-1" points="176.5 94.7 237.31 234.25 236.94 234.25 176.13 94.7 176.5 94.7"></polygon><polygon class="cls-1" points="176.87 94.7 237.67 234.25 237.31 234.25 176.5 94.7 176.87 94.7"></polygon><polygon class="cls-1" points="177.24 94.7 238.04 234.25 237.67 234.25 176.87 94.7 177.24 94.7"></polygon><polygon class="cls-1" points="177.6 94.7 238.41 234.25 238.04 234.25 177.24 94.7 177.6 94.7"></polygon><polygon class="cls-1" points="177.97 94.7 238.78 234.25 238.41 234.25 177.6 94.7 177.97 94.7"></polygon><polygon class="cls-1" points="178.34 94.7 239.15 234.25 238.78 234.25 177.97 94.7 178.34 94.7"></polygon><polygon class="cls-1" points="178.71 94.7 239.51 234.25 239.15 234.25 178.34 94.7 178.71 94.7"></polygon><polygon class="cls-1" points="179.07 94.7 239.88 234.25 239.51 234.25 178.71 94.7 179.07 94.7"></polygon><polygon class="cls-1" points="179.44 94.7 240.25 234.25 239.88 234.25 179.07 94.7 179.44 94.7"></polygon><polygon class="cls-1" points="179.81 94.7 240.62 234.25 240.25 234.25 179.44 94.7 179.81 94.7"></polygon><polygon class="cls-1" points="180.18 94.7 240.98 234.25 240.62 234.25 179.81 94.7 180.18 94.7"></polygon><polygon class="cls-1" points="180.55 94.7 241.35 234.25 240.98 234.25 180.18 94.7 180.55 94.7"></polygon><polygon class="cls-1" points="180.91 94.7 241.72 234.25 241.35 234.25 180.55 94.7 180.91 94.7"></polygon><polygon class="cls-1" points="181.28 94.7 242.09 234.25 241.72 234.25 180.91 94.7 181.28 94.7"></polygon><polygon class="cls-1" points="181.65 94.7 242.46 234.25 242.09 234.25 181.28 94.7 181.65 94.7"></polygon><polygon class="cls-1" points="182.02 94.7 242.82 234.25 242.46 234.25 181.65 94.7 182.02 94.7"></polygon><polygon class="cls-1" points="182.38 94.7 243.19 234.25 242.82 234.25 182.02 94.7 182.38 94.7"></polygon><polygon class="cls-1" points="182.75 94.7 243.56 234.25 243.19 234.25 182.38 94.7 182.75 94.7"></polygon><polygon class="cls-1" points="183.12 94.7 243.93 234.25 243.56 234.25 182.75 94.7 183.12 94.7"></polygon><polygon class="cls-1" points="183.49 94.7 244.3 234.25 243.93 234.25 183.12 94.7 183.49 94.7"></polygon><polygon class="cls-1" points="183.86 94.7 244.66 234.25 244.3 234.25 183.49 94.7 183.86 94.7"></polygon><polygon class="cls-1" points="184.22 94.7 245.03 234.25 244.66 234.25 183.86 94.7 184.22 94.7"></polygon><polygon class="cls-1" points="184.59 94.7 245.4 234.25 245.03 234.25 184.22 94.7 184.59 94.7"></polygon><polygon class="cls-1" points="184.96 94.7 245.77 234.25 245.4 234.25 184.59 94.7 184.96 94.7"></polygon><polygon class="cls-1" points="185.33 94.7 246.13 234.25 245.77 234.25 184.96 94.7 185.33 94.7"></polygon><polygon class="cls-1" points="185.7 94.7 246.5 234.25 246.13 234.25 185.33 94.7 185.7 94.7"></polygon><polygon class="cls-1" points="186.06 94.7 246.87 234.25 246.5 234.25 185.7 94.7 186.06 94.7"></polygon><polygon class="cls-1" points="186.43 94.7 247.24 234.25 246.87 234.25 186.06 94.7 186.43 94.7"></polygon><polygon class="cls-1" points="186.8 94.7 247.61 234.25 247.24 234.25 186.43 94.7 186.8 94.7"></polygon><polygon class="cls-1" points="187.17 94.7 247.97 234.25 247.61 234.25 186.8 94.7 187.17 94.7"></polygon><polygon class="cls-1" points="187.53 94.7 248.34 234.25 247.97 234.25 187.17 94.7 187.53 94.7"></polygon><polygon class="cls-1" points="187.9 94.7 248.71 234.25 248.34 234.25 187.53 94.7 187.9 94.7"></polygon><polygon class="cls-1" points="188.27 94.7 249.08 234.25 248.71 234.25 187.9 94.7 188.27 94.7"></polygon><polygon class="cls-1" points="188.64 94.7 249.44 234.25 249.08 234.25 188.27 94.7 188.64 94.7"></polygon><polygon class="cls-1" points="189.01 94.7 249.81 234.25 249.44 234.25 188.64 94.7 189.01 94.7"></polygon><polygon class="cls-1" points="189.37 94.7 250.18 234.25 249.81 234.25 189.01 94.7 189.37 94.7"></polygon><polygon class="cls-1" points="189.74 94.7 250.55 234.25 250.18 234.25 189.37 94.7 189.74 94.7"></polygon><polygon class="cls-1" points="190.11 94.7 250.92 234.25 250.55 234.25 189.74 94.7 190.11 94.7"></polygon><polygon class="cls-1" points="190.48 94.7 251.28 234.25 250.92 234.25 190.11 94.7 190.48 94.7"></polygon><polygon class="cls-1" points="190.84 94.7 251.65 234.25 251.28 234.25 190.48 94.7 190.84 94.7"></polygon><polygon class="cls-1" points="191.21 94.7 252.02 234.25 251.65 234.25 190.84 94.7 191.21 94.7"></polygon><polygon class="cls-1" points="191.58 94.7 252.39 234.25 252.02 234.25 191.21 94.7 191.58 94.7"></polygon><polygon class="cls-1" points="191.95 94.7 252.75 234.25 252.39 234.25 191.58 94.7 191.95 94.7"></polygon><polygon class="cls-1" points="192.32 94.7 253.12 234.25 252.75 234.25 191.95 94.7 192.32 94.7"></polygon><polygon class="cls-1" points="192.68 94.7 253.49 234.25 253.12 234.25 192.32 94.7 192.68 94.7"></polygon><polygon class="cls-1" points="193.05 94.7 253.86 234.25 253.49 234.25 192.68 94.7 193.05 94.7"></polygon><polygon class="cls-1" points="193.42 94.7 254.23 234.25 253.86 234.25 193.05 94.7 193.42 94.7"></polygon><polygon class="cls-1" points="193.79 94.7 254.59 234.25 254.23 234.25 193.42 94.7 193.79 94.7"></polygon><polygon class="cls-1" points="194.15 94.7 254.96 234.25 254.59 234.25 193.79 94.7 194.15 94.7"></polygon><polygon class="cls-1" points="194.52 94.7 255.33 234.25 254.96 234.25 194.15 94.7 194.52 94.7"></polygon><polygon class="cls-1" points="194.89 94.7 255.7 234.25 255.33 234.25 194.52 94.7 194.89 94.7"></polygon><polygon class="cls-1" points="195.26 94.7 256.07 234.25 255.7 234.25 194.89 94.7 195.26 94.7"></polygon><polygon class="cls-1" points="195.63 94.7 256.43 234.25 256.07 234.25 195.26 94.7 195.63 94.7"></polygon><polygon class="cls-1" points="195.99 94.7 256.8 234.25 256.43 234.25 195.63 94.7 195.99 94.7"></polygon><polygon class="cls-1" points="196.36 94.7 257.17 234.25 256.8 234.25 195.99 94.7 196.36 94.7"></polygon><polygon class="cls-1" points="196.73 94.7 257.54 234.25 257.17 234.25 196.36 94.7 196.73 94.7"></polygon><polygon class="cls-1" points="197.1 94.7 257.9 234.25 257.54 234.25 196.73 94.7 197.1 94.7"></polygon><polygon class="cls-1" points="197.47 94.7 258.27 234.25 257.9 234.25 197.1 94.7 197.47 94.7"></polygon><polygon class="cls-1" points="197.83 94.7 258.64 234.25 258.27 234.25 197.47 94.7 197.83 94.7"></polygon><polygon class="cls-1" points="198.2 94.7 259.01 234.25 258.64 234.25 197.83 94.7 198.2 94.7"></polygon><polygon class="cls-1" points="198.57 94.7 259.38 234.25 259.01 234.25 198.2 94.7 198.57 94.7"></polygon><polygon class="cls-1" points="198.94 94.7 259.74 234.25 259.38 234.25 198.57 94.7 198.94 94.7"></polygon><polygon class="cls-1" points="199.3 94.7 260.11 234.25 259.74 234.25 198.94 94.7 199.3 94.7"></polygon><polygon class="cls-1" points="199.67 94.7 260.48 234.25 260.11 234.25 199.3 94.7 199.67 94.7"></polygon><polygon class="cls-1" points="200.04 94.7 260.85 234.25 260.48 234.25 199.67 94.7 200.04 94.7"></polygon><polygon class="cls-1" points="200.41 94.7 261.21 234.25 260.85 234.25 200.04 94.7 200.41 94.7"></polygon><polygon class="cls-1" points="200.78 94.7 261.58 234.25 261.21 234.25 200.41 94.7 200.78 94.7"></polygon><polygon class="cls-1" points="201.14 94.7 261.95 234.25 261.58 234.25 200.78 94.7 201.14 94.7"></polygon><polygon class="cls-1" points="201.51 94.7 262.32 234.25 261.95 234.25 201.14 94.7 201.51 94.7"></polygon><polygon class="cls-1" points="201.88 94.7 262.69 234.25 262.32 234.25 201.51 94.7 201.88 94.7"></polygon><polygon class="cls-1" points="202.25 94.7 263.05 234.25 262.69 234.25 201.88 94.7 202.25 94.7"></polygon><polygon class="cls-1" points="202.61 94.7 263.42 234.25 263.05 234.25 202.25 94.7 202.61 94.7"></polygon><polygon class="cls-1" points="202.98 94.7 263.79 234.25 263.42 234.25 202.61 94.7 202.98 94.7"></polygon><polygon class="cls-1" points="203.35 94.7 264.16 234.25 263.79 234.25 202.98 94.7 203.35 94.7"></polygon><polygon class="cls-1" points="203.72 94.7 264.53 234.25 264.16 234.25 203.35 94.7 203.72 94.7"></polygon><polygon class="cls-1" points="204.09 94.7 264.89 234.25 264.53 234.25 203.72 94.7 204.09 94.7"></polygon><polygon class="cls-1" points="204.45 94.7 265.26 234.25 264.89 234.25 204.09 94.7 204.45 94.7"></polygon><polygon class="cls-1" points="204.82 94.7 265.63 234.25 265.26 234.25 204.45 94.7 204.82 94.7"></polygon><polygon class="cls-1" points="205.19 94.7 266 234.25 265.63 234.25 204.82 94.7 205.19 94.7"></polygon><polygon class="cls-1" points="205.56 94.7 266.36 234.25 266 234.25 205.19 94.7 205.56 94.7"></polygon><polygon class="cls-1" points="205.93 94.7 266.73 234.25 266.36 234.25 205.56 94.7 205.93 94.7"></polygon><polygon class="cls-1" points="206.29 94.7 267.07 234.18 266.91 234.25 266.73 234.25 205.93 94.7 206.29 94.7"></polygon><polygon class="cls-1" points="206.66 94.7 267.38 234.04 267.07 234.18 206.29 94.7 206.66 94.7"></polygon><polygon class="cls-1" points="207.03 94.7 267.69 233.91 267.38 234.04 206.66 94.7 207.03 94.7"></polygon><polygon class="cls-1" points="207.4 94.7 268 233.77 267.69 233.91 207.03 94.7 207.4 94.7"></polygon><polygon class="cls-1" points="207.76 94.7 268.31 233.64 268 233.77 207.4 94.7 207.76 94.7"></polygon><polygon class="cls-1" points="208.13 94.7 268.62 233.51 268.31 233.64 207.76 94.7 208.13 94.7"></polygon><polygon class="cls-1" points="208.5 94.7 268.92 233.37 268.62 233.51 208.13 94.7 208.5 94.7"></polygon><polygon class="cls-1" points="208.87 94.7 269.23 233.24 268.92 233.37 208.5 94.7 208.87 94.7"></polygon><polygon class="cls-1" points="209.24 94.7 269.54 233.1 269.23 233.24 208.87 94.7 209.24 94.7"></polygon><polygon class="cls-1" points="209.6 94.7 269.85 232.97 269.54 233.1 209.24 94.7 209.6 94.7"></polygon><polygon class="cls-1" points="209.97 94.7 270.16 232.83 269.85 232.97 209.6 94.7 209.97 94.7"></polygon><polygon class="cls-1" points="210.34 94.7 270.47 232.7 270.16 232.83 209.97 94.7 210.34 94.7"></polygon><polygon class="cls-1" points="210.71 94.7 270.78 232.56 270.47 232.7 210.34 94.7 210.71 94.7"></polygon><polygon class="cls-1" points="211.07 94.7 271.09 232.43 270.78 232.56 210.71 94.7 211.07 94.7"></polygon><polygon class="cls-1" points="211.44 94.7 271.4 232.29 271.09 232.43 211.07 94.7 211.44 94.7"></polygon><polygon class="cls-1" points="211.81 94.7 271.71 232.16 271.4 232.29 211.44 94.7 211.81 94.7"></polygon><polygon class="cls-1" points="212.18 94.7 272.02 232.02 271.71 232.16 211.81 94.7 212.18 94.7"></polygon><polygon class="cls-1" points="295.35 221.86 272.02 232.02 212.18 94.7 295.35 94.7 295.35 221.86"></polygon></g><path class="cls-1" d="M275.22,195.7l-7.71,36.11c-31.78,1.88-61.87,2.44-92.53,2.44-32.54,0-65.82-.56-97.42-2.44l24.07-113.21-22.94-17.49.75-3.95c36.48-1.5,92.34-2.45,131.46-2.45h.75c28.21,0,55.29.56,83.69,2.45l-7.71,36.11c-23.32-2.07-52.85-2.26-76.35-2.26h-59.62l-4.33,20.31h91.78l-5.45,26.89h-91.96l-4.14,19.37c21.25.19,44.76.38,66.2.38s48.52-.19,71.46-2.26Z"></path></g></svg>