<?xml version="1.0" encoding="UTF-8"?><svg id="Layer_2" xmlns="http://www.w3.org/2000/svg" viewBox="0 0 667.05 318.26"><defs></defs><g id="Layer_1-2"><path class="cls-2" d="M118.35,208.81c.41-1.06.69-2.02.96-3.08h14.65c-.87,3.81-2.02,7.35-3.4,11.16-8.49,1.47-16.71,2.02-24.84,2.02s-16.12-.55-23.97-2.02c.32-5.1.96-9.92,2.07-15.01,1.1-5.1,2.48-9.92,4.32-15.01,8.45-1.47,16.71-2.02,24.84-2.02s16.12.41,24.06,1.52c-.28,4.09-.64,7.85-1.42,11.75h-14.69c.18-1.01.28-2.02.37-3.17-3.35-.5-6.93-.55-10.33-.55s-7.16.05-10.7.55c-.73,2.39-1.33,4.55-1.84,6.93-.5,2.39-.83,4.55-1.1,6.93,3.35.51,6.98.55,10.42.55s7.07-.05,10.61-.55Z"></path><path class="cls-2" d="M163.91,218.91c-8.36,0-16.53-.46-24.7-1.52.73-5.28,1.56-10.28,2.66-15.52,1.1-5.23,2.39-10.24,3.95-15.52,8.63-1.06,16.99-1.52,25.34-1.52s16.53.46,24.7,1.52c-.73,5.28-1.56,10.28-2.66,15.52-1.1,5.23-2.39,10.24-3.95,15.52-8.63,1.06-16.99,1.52-25.34,1.52ZM154.91,208.81c3.54.37,7.35.55,11.02.55s7.58-.18,11.29-.55c.78-2.39,1.38-4.55,1.88-6.93.51-2.39.83-4.55,1.06-6.93-3.54-.37-7.35-.55-11.02-.55s-7.58.18-11.29.55c-.78,2.39-1.38,4.55-1.88,6.93-.51,2.39-.83,4.55-1.06,6.93Z"></path><path class="cls-2" d="M200.6,218.41c1.47-7.07,3.31-14.92,5.14-22.5l.96-4.68-5.6-4.32.23-.96c6.7-.32,17.68-.73,27-.92.46-.05.92-.05,1.38-.05.51,0,1.1-.05,1.61-.05,1.01,0,2.11-.05,3.17-.05h2.16c9.37,0,18.59.41,27.82,1.52-1.65,10.15-3.95,21.9-6.06,32h-12.86c1.56-7.39,3.44-16.44,4.54-23.83-2.94-.18-5.97-.37-9-.46l-5.14,24.29h-12.9l5.14-24.29c-3.08.09-6.15.28-9.18.46-1.93,7.39-4,16.44-5.56,23.83h-12.86Z"></path><path class="cls-2" d="M300.52,184.85c7.25,0,14.78.37,22.13,1.29-.05,3.81-.55,7.71-1.33,11.52-.83,3.76-1.97,7.62-3.58,11.48-7.71.64-15.52.87-22.96.87-2.34,0-5.65,0-10.15-.09l-1.79,8.49h-12.86l5.88-27.78-5.65-4.32.23-.96c8.86-.37,20.52-.51,30.07-.51ZM306.9,201.56c.46-1.33.87-2.62,1.15-3.9.28-1.33.41-2.62.5-3.95-1.93-.14-7.48-.28-10.24-.28-4.13,0-6.93.14-10.19.32h-.05l-1.65,7.81.05-.05c3.17.28,5.92.32,10.06.32s6.98-.05,10.38-.28Z"></path><path class="cls-2" d="M376.15,209.5l-1.88,8.82c-7.76.46-15.11.6-22.59.6-7.94,0-16.07-.14-23.78-.6l5.88-27.64-5.6-4.27.18-.96c8.91-.37,22.54-.6,32.09-.6h.18c6.89,0,13.5.14,20.43.6l-1.88,8.82c-5.69-.51-12.9-.55-18.64-.55h-14.55l-1.06,4.96h22.41l-1.33,6.57h-22.45l-1.01,4.73c5.19.05,10.93.09,16.16.09s11.85-.05,17.45-.55Z"></path><path class="cls-2" d="M433.45,194.99c-9.14-.28-14.46-.41-18-.46l-5.05,23.88h-13.41l5.05-23.88c-3.58.05-8.95.18-18.18.46l2.02-9.5c8.4-.46,16.67-.6,24.93-.6s16.44.14,24.66.6l-2.02,9.5Z"></path><path class="cls-2" d="M451.14,218.41h-12.86l5.88-27.73-5.6-4.36.23-.96h19.38l-7.02,33.06Z"></path><path class="cls-2" d="M510.32,194.99c-9.14-.28-14.46-.41-18-.46l-5.05,23.88h-13.41l5.05-23.88c-3.58.05-8.95.18-18.18.46l2.02-9.5c8.4-.46,16.67-.6,24.93-.6s16.44.14,24.66.6l-2.02,9.5Z"></path><path class="cls-2" d="M526.91,218.41h-12.86l5.88-27.73-5.6-4.36.23-.96h19.38l-7.02,33.06Z"></path><path class="cls-2" d="M560.93,218.91c-8.36,0-16.53-.46-24.7-1.52.73-5.28,1.56-10.28,2.66-15.52,1.1-5.23,2.39-10.24,3.95-15.52,8.63-1.06,16.99-1.52,25.34-1.52s16.53.46,24.7,1.52c-.73,5.28-1.56,10.28-2.66,15.52-1.1,5.23-2.39,10.24-3.95,15.52-8.63,1.06-16.99,1.52-25.34,1.52ZM551.93,208.81c3.54.37,7.35.55,11.02.55s7.58-.18,11.29-.55c.78-2.39,1.38-4.55,1.88-6.93.51-2.39.83-4.55,1.06-6.93-3.54-.37-7.35-.55-11.02-.55s-7.58.18-11.29.55c-.78,2.39-1.38,4.55-1.88,6.93-.51,2.39-.83,4.55-1.06,6.93Z"></path><path class="cls-2" d="M647.17,218.41h-13.31l-16.85-23.37c-.73-.09-1.7-.14-2.62-.14l-4.96,23.51h-13.36l5.83-27.55-5.79-4.55.23-.96h8.31c7.16,0,13.77.18,22.41.64l10.47,15.11,3.35-15.75h13.31l-7.02,33.06Z"></path><path class="cls-2" d="M148.17,318.26c-50.53-4.77-96.06-30.46-118.67-77.24-9.86-19.84-15.06-41.46-17.38-63.31-3.46-28.89,1.47-58.96,14.93-84.92C53.88,40.05,111.35,8.31,170.01,10.05c18.79.52,37.78,3.76,55.12,11.23,22.54,9.53,41.59,25.96,57.43,44.16-19.93-11.99-39.95-23.57-62.56-28.91-14.81-3.54-30.1-4.34-45.26-3.38-72.82,3.95-137.13,58.53-136.13,134.23.87,78.51,35.97,124.89,109.56,150.89h0Z"></path><path class="cls-1" d="M148.17,318.26c-1.62-.04-5.46-.24-7.02-.3-1.37-.13-5.56-.55-7.02-.7-1.62-.25-5.44-.83-7-1.08-1.39-.27-5.47-1.15-6.96-1.46-1.6-.43-5.37-1.38-6.91-1.8-1.33-.37-5.41-1.75-6.82-2.16-1.56-.6-5.24-1.9-6.74-2.49-1.29-.52-5.25-2.27-6.62-2.84C38.44,280.63,1.16,224.33.04,164.22-2.02,67.78,81.73-11.04,178.22,1.27c22.76,2.97,44.79,11.56,63.89,24.22,15.82,10.58,30.06,24.19,40.44,39.95-27.94-22.85-61.6-38.42-97.56-41.3-33.8-2.74-68.43,6.9-96.13,26.32-107.94,78.52-65.09,235.4,59.31,267.8h0Z"></path><path class="cls-1" d="M166.42,162.7l-3.15,14.75c-12.98.77-25.27,1-37.78,1-13.29,0-26.88-.23-39.78-1l9.83-46.23-9.37-7.14.31-1.61c14.9-.61,37.71-1,53.68-1h.31c11.52,0,22.58.23,34.17,1l-3.15,14.75c-9.52-.84-21.58-.92-31.18-.92h-24.35l-1.77,8.29h37.48l-2.23,10.98h-37.55l-1.69,7.91c8.68.08,18.28.15,27.03.15s19.81-.08,29.18-.92Z"></path><path class="cls-1" d="M236.61,161.55c.69-1.77,1.15-3.38,1.61-5.15h24.5c-1.46,6.37-3.38,12.29-5.68,18.66-14.21,2.46-27.95,3.38-41.55,3.38s-26.96-.92-40.09-3.38c.54-8.52,1.61-16.59,3.46-25.11,1.84-8.52,4.15-16.59,7.22-25.11,14.13-2.46,27.95-3.38,41.55-3.38s26.96.69,40.24,2.53c-.46,6.83-1.08,13.13-2.38,19.66h-24.58c.31-1.69.46-3.38.62-5.3-5.61-.84-11.6-.92-17.28-.92s-11.98.08-17.89.92c-1.23,3.99-2.23,7.6-3.07,11.6-.84,3.99-1.38,7.6-1.84,11.6,5.61.84,11.67.92,17.43.92s11.83-.08,17.74-.92Z"></path><path class="cls-1" d="M306.5,122.3l-2.07,9.6c-2.07,9.6-4.22,20.58-5.91,30.26,4.61.85,9.91.92,14.75.92s10.06-.08,15.05-.92c.54-1.69,1.15-3.53,1.61-5.22h21.5c-1.54,6.53-3.38,12.67-5.91,19.74-12.13,1.38-23.81,1.77-35.56,1.77s-23.12-.38-34.87-1.77c1.92-14.44,4.76-30.41,7.83-44.77l.15-.69-9.37-7.3.38-1.61h32.41Z"></path><path class="cls-1" d="M377.68,177.6h-21.5l9.83-46.39-9.37-7.3.38-1.61h32.41l-11.75,55.29Z"></path><path class="cls-1" d="M446.11,121.46c12.13,0,24.73.61,37.02,2.15-.08,6.37-.92,12.9-2.23,19.28-1.38,6.3-3.3,12.75-5.99,19.2-12.9,1.08-25.96,1.46-38.4,1.46-3.92,0-9.45,0-16.97-.15l-3,14.21h-21.5l9.83-46.46-9.45-7.22.38-1.61c14.82-.61,34.33-.84,50.3-.84ZM456.78,149.41c.77-2.23,1.46-4.38,1.92-6.53.46-2.23.69-4.38.84-6.6-3.23-.23-12.52-.46-17.13-.46-6.91,0-11.6.23-17.05.54h-.08l-2.76,13.06.08-.08c5.3.46,9.91.54,16.82.54s11.67-.08,17.36-.46Z"></path><path class="cls-1" d="M489.96,154.1c-.15-5.22.31-9.68,1.38-14.75,1.23-5.53,2.76-10.21,5.07-15.74,13.06-1.54,25.88-2.07,38.4-2.07s25.34.23,38.01,1.31l-3,13.98c-8.68-.38-16.74-.92-28.34-.92-10.91,0-18.74.38-27.34,1-.31.69-.62,1.61-.84,2.53-.15.77-.08,1.31-.15,2.23,18.28.92,37.09.23,55.14,3.99,0,5.3-.38,9.52-1.54,14.82-1.15,5.53-2.69,10.29-4.99,15.82-13.21,1.54-26.19,2.07-38.94,2.07s-25.19-.31-37.78-1.31l3-13.98c8.75.46,17.2.84,29.26.84,10.83,0,18.66-.38,26.42-.92.38-.69.69-1.54.92-2.61.23-.92.23-1.61.15-2.46-18.66-.54-36.79-.46-54.83-3.84Z"></path><path class="cls-1" d="M658.83,162.7l-3.15,14.75c-12.98.77-25.27,1-37.78,1-13.29,0-26.88-.23-39.78-1l9.83-46.23-9.37-7.14.31-1.61c14.9-.61,37.71-1,53.68-1h.31c11.52,0,22.58.23,34.17,1l-3.15,14.75c-9.52-.84-21.58-.92-31.18-.92h-24.35l-1.77,8.29h37.48l-2.23,10.98h-37.55l-1.69,7.91c8.68.08,18.28.15,27.03.15s19.81-.08,29.18-.92Z"></path></g></svg>